<svg id="Layer_3" fill="#2699FB" enable-background="new 0 0 64 64" height="512" viewBox="0 0 64 64" width="512" xmlns="http://www.w3.org/2000/svg"><path d="m51 37c-1.404 0-2.747.255-4 .7v-35.7c0-.553-.448-1-1-1h-44c-.552 0-1 .447-1 1v60c0 .553.448 1 1 1h44c.552 0 1-.447 1-1v-1.7c1.253.445 2.596.7 4 .7 6.617 0 12-5.383 12-12s-5.383-12-12-12zm9.414 14-1.414-1.414v-1.172l1.414-1.414h.384c.132.646.202 1.315.202 2s-.07 1.354-.202 2zm-.255-6h-.159c-.265 0-.52.105-.707.293l-2 2c-.188.187-.293.441-.293.707h-2c0-.266-.105-.52-.293-.707l-2-2c-.187-.188-.442-.293-.707-.293v-2c.265 0 .52-.105.707-.293l2-2c.188-.187.293-.441.293-.707v-.159c2.301 1.009 4.15 2.858 5.159 5.159zm-10.159 10c-.265 0-.52.105-.707.293l-2 2c-.188.187-.293.441-.293.707v.159c-2.301-1.009-4.15-2.858-5.159-5.159h.159c.265 0 .52-.105.707-.293l2-2c.188-.187.293-.441.293-.707h2c0 .266.105.52.293.707l2 2c.187.188.442.293.707.293zm-3-15.159v.159c0 .266.105.52.293.707l2 2c.187.188.442.293.707.293v2c-.265 0-.52.105-.707.293l-2 2c-.188.187-.293.441-.293.707h-2c0-.266-.105-.52-.293-.707l-2-2c-.187-.188-.442-.293-.707-.293h-.159c1.009-2.301 2.858-4.15 5.159-5.159zm-6 9.159c0-.685.07-1.354.202-2h.384l1.414 1.414v1.172l-1.414 1.414h-.384c-.132-.646-.202-1.315-.202-2zm10.586 2h-1.172l-1.414-1.414v-1.172l1.414-1.414h1.172l1.414 1.414v1.172zm1.414-11.798v.384l-1.414 1.414h-1.172l-1.414-1.414v-.384c.646-.132 1.315-.202 2-.202s1.354.07 2 .202zm-14 9.798c0 3.57 1.575 6.771 4.057 8.971-.993.73-1.691 1.809-1.943 3.029h-6.114v-7c0-.553-.448-1-1-1h-3.08c-.488-3.386-3.401-6-6.92-6s-6.432 2.614-6.92 6h-3.08c-.552 0-1 .447-1 1v7h-6.101c-.399-1.956-1.943-3.5-3.899-3.899v-24.101h12.059c.5 4.493 4.317 8 8.941 8s8.442-3.507 8.941-8h12.059v5.624c-3.581 2.078-6 5.946-6 10.376zm-6 6v6h-18v-6zm-13.899-2c.465-2.279 2.484-4 4.899-4s4.434 1.721 4.899 4zm-12.202-50h6.101v7c0 .553.448 1 1 1h3.08c.488 3.386 3.401 6 6.92 6s6.432-2.614 6.92-6h3.08c.552 0 1-.447 1-1v-7h6.101c.399 1.956 1.943 3.5 3.899 3.899v24.101h-12.059c-.5-4.493-4.317-8-8.941-8s-8.442 3.507-8.941 8h-12.059v-24.101c1.956-.399 3.5-1.943 3.899-3.899zm8.101 6v-6h18v6zm13.899 2c-.465 2.279-2.484 4-4.899 4s-4.434-1.721-4.899-4zm-11.819 20c.488-3.386 3.401-6 6.92-6s6.432 2.614 6.92 6zm13.84 2c-.488 3.386-3.401 6-6.92 6s-6.432-2.614-6.92-6zm14.08-28.184c-.847-.302-1.514-.969-1.816-1.816h1.816zm-40.184-1.816c-.302.847-.969 1.514-1.816 1.816v-1.816zm-1.816 56.184c.847.302 1.514.969 1.816 1.816h-1.816zm42 1.816h-1.824c.276-.773.862-1.409 1.625-1.744.066.04.131.082.198.121v1.623zm4-2.202v-.384l1.414-1.414h1.172l1.414 1.414v.384c-.646.132-1.315.202-2 .202s-1.354-.07-2-.202zm6-.639v-.159c0-.266-.105-.52-.293-.707l-2-2c-.187-.188-.442-.293-.707-.293v-2c.265 0 .52-.105.707-.293l2-2c.188-.187.293-.441.293-.707h2c0 .266.105.52.293.707l2 2c.187.188.442.293.707.293h.159c-1.009 2.301-2.858 4.15-5.159 5.159z"/></svg>